<svg id="visual" viewBox="0 0 900 600" width="900" height="600" xmlns="http://www.w3.org/2000/svg" xmlns:xlink="http://www.w3.org/1999/xlink" version="1.1"><rect x="0" y="0" width="900" height="600" fill="#ffffff"></rect><g transform="translate(-21.28505677528392 -72.72171760564203)"><path d="M393.6 -420.4C503.1 -377.2 580 -246.5 604.9 -106.4C629.9 33.6 602.9 183.1 534.1 314.2C465.3 445.3 354.8 558.1 230.7 579.8C106.7 601.4 -30.8 531.9 -179.7 482.5C-328.7 433.2 -489.1 404.1 -545.9 312.1C-602.7 220.1 -555.9 65.1 -493.6 -52.1C-431.3 -169.4 -353.6 -249 -268.7 -296.6C-183.8 -344.1 -91.9 -359.6 25.1 -389.4C142.1 -419.3 284.1 -463.6 393.6 -420.4" fill="#f5f5f5"></path></g></svg>